<svg xmlns="http://www.w3.org/2000/svg" viewBox="0 0 192 192" role="img" aria-label="">
  <defs>
    <linearGradient id="bg" x1="0" y1="0" x2="1" y2="1">
      <stop offset="0" stop-color="#e5e7eb"/>
      <stop offset="1" stop-color="#cbd5e1"/>
    </linearGradient>
    <linearGradient id="shirt" x1="0" y1="0" x2="0" y2="1">
      <stop offset="0" stop-color="#111827"/>
      <stop offset="1" stop-color="#374151"/>
    </linearGradient>
  </defs>
  <rect width="192" height="192" rx="18" fill="url(#bg)"/>
  <circle cx="150" cy="42" r="46" fill="#f8fafc" opacity=".45"/>
  <circle cx="58" cy="38" r="34" fill="#ffffff" opacity=".28"/>
  <rect x="45" y="119" width="102" height="72" rx="34" fill="url(#shirt)"/>
  <circle cx="96" cy="78" r="34" fill="#f1d2bd"/>
  <path d="M60 77c2-27 17-43 38-43 25 0 40 18 39 43-9-17-22-26-40-26-17 0-29 8-37 26Z" fill="#2f241f"/>
  <path d="M63 76c10-15 23-23 39-23 14 0 25 7 32 20-5-26-19-39-39-39-19 0-30 14-32 42Z" fill="#1f2937" opacity=".4"/>
  <path d="M82 91c9 7 20 7 29 0" fill="none" stroke="#7c4a35" stroke-width="4" stroke-linecap="round"/>
  <circle cx="83" cy="77" r="3" fill="#111827"/>
  <circle cx="109" cy="77" r="3" fill="#111827"/>
  <path d="M74 124c8 8 15 12 22 12s15-4 23-12" fill="none" stroke="#f8fafc" stroke-width="5" stroke-linecap="round"/>
</svg>
