<svg xmlns="http://www.w3.org/2000/svg" width="1200" height="630" viewBox="0 0 1200 630" role="img" aria-label="Devlog Сергея">
  <rect width="1200" height="630" fill="#f5f7f8"/>
  <path d="M0 96h1200M0 192h1200M0 288h1200M0 384h1200M0 480h1200M0 576h1200M120 0v630M240 0v630M360 0v630M480 0v630M600 0v630M720 0v630M840 0v630M960 0v630M1080 0v630" stroke="#d9e0e3" stroke-width="1"/>
  <rect x="96" y="94" width="1008" height="442" rx="8" fill="#fff" stroke="#172126" stroke-width="2"/>
  <text x="136" y="174" fill="#a44721" font-family="Menlo, monospace" font-size="26" font-weight="700">VIDEO / AI / WORKFLOW</text>
  <text x="136" y="276" fill="#172126" font-family="Georgia, serif" font-size="72" font-weight="700">Devlog Сергея</text>
  <text x="136" y="340" fill="#5a6870" font-family="Arial, sans-serif" font-size="34">AI-автомонтаж, Premiere, DaVinci, self-hosted</text>
  <path d="M136 430h170l52-62 54 96 64-146 74 112h218" fill="none" stroke="#0f766e" stroke-width="10" stroke-linecap="round" stroke-linejoin="round"/>
  <circle cx="846" cy="430" r="16" fill="#0f766e"/>
  <rect x="882" y="404" width="118" height="52" rx="8" fill="#172126"/>
  <text x="906" y="438" fill="#fff" font-family="Menlo, monospace" font-size="18">EditPlan</text>
</svg>
