<svg xmlns="http://www.w3.org/2000/svg" width="720" height="420" viewBox="0 0 720 420" role="img" aria-label="Схема пайплайна AI-автомонтажа">
  <rect width="720" height="420" rx="8" fill="#ffffff"/>
  <path d="M0 70h720M0 140h720M0 210h720M0 280h720M0 350h720M120 0v420M240 0v420M360 0v420M480 0v420M600 0v420" stroke="#e6ecef" stroke-width="1"/>
  <text x="36" y="52" fill="#a44721" font-family="Menlo, monospace" font-size="15" font-weight="700">ROUGH CUT PIPELINE</text>
  <g font-family="Arial, sans-serif" font-size="18" font-weight="700">
    <rect x="38" y="100" width="150" height="74" rx="8" fill="#eef2f3" stroke="#172126"/>
    <text x="62" y="132" fill="#172126">Исходники</text>
    <text x="62" y="156" fill="#5a6870" font-size="13">media / timeline</text>
    <rect x="278" y="72" width="166" height="74" rx="8" fill="#eef8f7" stroke="#0f766e"/>
    <text x="306" y="104" fill="#172126">Транскрипт</text>
    <text x="306" y="128" fill="#5a6870" font-size="13">SRT / words</text>
    <rect x="278" y="176" width="166" height="74" rx="8" fill="#f5f0ec" stroke="#a44721"/>
    <text x="306" y="208" fill="#172126">Audio Atlas</text>
    <text x="306" y="232" fill="#5a6870" font-size="13">RMS / VAD / events</text>
    <rect x="532" y="124" width="150" height="74" rx="8" fill="#eef4fa" stroke="#245f8f"/>
    <text x="562" y="156" fill="#172126">EditPlan</text>
    <text x="562" y="180" fill="#5a6870" font-size="13">review flags</text>
    <rect x="198" y="302" width="324" height="58" rx="8" fill="#172126"/>
    <text x="246" y="338" fill="#ffffff">FCPXML / markers / report</text>
  </g>
  <g fill="none" stroke="#172126" stroke-width="3" stroke-linecap="round" stroke-linejoin="round">
    <path d="M188 137h72"/>
    <path d="M252 129l8 8-8 8"/>
    <path d="M188 137c42 0 46 76 72 76"/>
    <path d="M252 205l8 8-8 8"/>
    <path d="M444 109c44 0 46 52 72 52"/>
    <path d="M508 153l8 8-8 8"/>
    <path d="M444 213c44 0 46-52 72-52"/>
    <path d="M508 153l8 8-8 8"/>
    <path d="M607 198c0 70-126 104-126 104"/>
    <path d="M491 297l-10 5 8 8"/>
  </g>
</svg>
